HIERARCHY
ROOT hip
{
	OFFSET 0.000000 103.560692 0.219151
	CHANNELS 6 Xposition Yposition Zposition Zrotation Xrotation Yrotation
	JOINT pelvis
	{
		OFFSET 0.000000 1.955040 1.591925
		CHANNELS 3 Zrotation Xrotation Yrotation
		JOINT lThigh
		{
			OFFSET 8.341582 -7.629402 -0.646910
			CHANNELS 3 Zrotation Xrotation Yrotation
			JOINT lShin
			{
				OFFSET 2.185763 -45.093132 -0.705710
				CHANNELS 3 Zrotation Xrotation Yrotation
				JOINT lFoot
				{
					OFFSET 0.730976 -46.379768 -2.264282
					CHANNELS 3 Zrotation Xrotation Yrotation
					JOINT lToe
					{
						OFFSET 2.797621 -4.200020 10.742415
						CHANNELS 3 Zrotation Xrotation Yrotation
						JOINT lBigToe
						{
							OFFSET -2.433708 -0.269072 1.841711
							CHANNELS 3 Zrotation Xrotation Yrotation
							End Site
							{
								OFFSET -10.527346 -33.657166 -1.340707
							}
						}
					}
				}
			}
		}
		JOINT rThigh
		{
			OFFSET -8.341582 -7.629402 -0.646910
			CHANNELS 3 Zrotation Xrotation Yrotation
			JOINT rShin
			{
				OFFSET -2.185763 -45.093132 -0.705710
				CHANNELS 3 Zrotation Xrotation Yrotation
				JOINT rFoot
				{
					OFFSET -0.730976 -46.379768 -2.264282
					CHANNELS 3 Zrotation Xrotation Yrotation
					JOINT rToe
					{
						OFFSET -2.797621 -4.200019 10.742415
						CHANNELS 3 Zrotation Xrotation Yrotation
						JOINT rBigToe
						{
							OFFSET 2.433708 -0.269072 1.841711
							CHANNELS 3 Zrotation Xrotation Yrotation
							End Site
							{
								OFFSET 0.000000 24.298409 -0.425647
							}
						}
					}
				}
			}
		}
	}
	JOINT abdomen
	{
		OFFSET 0.000000 1.841293 -3.551421
		CHANNELS 3 Zrotation Xrotation Yrotation
		JOINT abdomen2
		{
			OFFSET 0.000000 5.439911 3.419600
			CHANNELS 3 Zrotation Xrotation Yrotation
			JOINT chest
			{
				OFFSET 0.000000 14.715073 -2.918270
				CHANNELS 3 Zrotation Xrotation Yrotation
				JOINT neck
				{
					OFFSET 0.000000 26.294655 -1.248052
					CHANNELS 3 Zrotation Xrotation Yrotation
					JOINT head
					{
						OFFSET 0.000000 8.807068 1.063695
						CHANNELS 3 Zrotation Xrotation Yrotation
						JOINT rEye
						{
							OFFSET -3.030866 6.632080 7.702687
							CHANNELS 3 Zrotation Xrotation Yrotation
							End Site
							{
								OFFSET 2.969555 -11.022598 8.626689
							}
						}
						JOINT lEye
						{
							OFFSET 3.030866 6.632080 7.702687
							CHANNELS 3 Zrotation Xrotation Yrotation
							End Site
							{
								OFFSET 0.000000 -15.881760 10.104412
							}
						}
						JOINT upperJaw
						{
							OFFSET 0.000000 1.922699 2.891887
							CHANNELS 3 Zrotation Xrotation Yrotation
							End Site
							{
								OFFSET 0.000000 -19.386169 10.230839
							}
						}
						JOINT lowerJaw
						{
							OFFSET 0.000000 1.857620 2.686640
							CHANNELS 3 Zrotation Xrotation Yrotation
							JOINT tongueBase
							{
								OFFSET 0.000000 -3.019135 2.746916
								CHANNELS 3 Zrotation Xrotation Yrotation
								JOINT tongue01
								{
									OFFSET 0.000000 0.664124 0.223355
									CHANNELS 3 Zrotation Xrotation Yrotation
									JOINT tongue02
									{
										OFFSET 0.000000 0.339737 0.715627
										CHANNELS 3 Zrotation Xrotation Yrotation
										JOINT tongue03
										{
											OFFSET 0.000000 0.123444 0.730634
											CHANNELS 3 Zrotation Xrotation Yrotation
											JOINT tongue04
											{
												OFFSET 0.000000 0.017212 0.737415
												CHANNELS 3 Zrotation Xrotation Yrotation
												JOINT tongue05
												{
													OFFSET 0.000000 -0.021011 0.632440
													CHANNELS 3 Zrotation Xrotation Yrotation
													JOINT tongueTip
													{
														OFFSET 0.000000 -0.014404 0.601796
														CHANNELS 3 Zrotation Xrotation Yrotation
														End Site
														{
															OFFSET -14.139406 -2.625778 0.472826
														}
													}
												}
											}
										}
									}
								}
							}
						}
					}
				}
				JOINT rCollar
				{
					OFFSET -2.109295 21.452370 3.768136
					CHANNELS 3 Zrotation Xrotation Yrotation
					JOINT rShldr
					{
						OFFSET -11.491621 -2.568573 -4.940255
						CHANNELS 3 Zrotation Xrotation Yrotation
						JOINT rForeArm
						{
							OFFSET -28.789030 -0.213806 2.098380
							CHANNELS 3 Zrotation Xrotation Yrotation
							JOINT rHand
							{
								OFFSET -22.260895 -0.869583 10.391586
								CHANNELS 3 Zrotation Xrotation Yrotation
								JOINT rThumb1
								{
									OFFSET -0.628075 0.137405 2.362409
									CHANNELS 3 Zrotation Xrotation Yrotation
									JOINT rThumb2
									{
										OFFSET 0.085205 -0.600235 3.826079
										CHANNELS 3 Zrotation Xrotation Yrotation
										JOINT rThumb3
										{
											OFFSET -1.255478 -0.879211 2.439162
											CHANNELS 3 Zrotation Xrotation Yrotation
											End Site
											{
												OFFSET -2.963715 0.538574 4.059553
											}
										}
									}
								}
								JOINT rCarpal1
								{
									OFFSET -0.855530 1.026047 1.621985
									CHANNELS 3 Zrotation Xrotation Yrotation
									JOINT rIndex1
									{
										OFFSET -3.951324 0.390884 3.873290
										CHANNELS 3 Zrotation Xrotation Yrotation
										JOINT rIndex2
										{
											OFFSET -3.071884 -1.259598 2.506104
											CHANNELS 3 Zrotation Xrotation Yrotation
											JOINT rIndex3
											{
												OFFSET -1.394112 -1.446640 1.203302
												CHANNELS 3 Zrotation Xrotation Yrotation
												End Site
												{
													OFFSET -3.392448 -1.258026 0.533405
												}
											}
										}
									}
									JOINT rMid1
									{
										OFFSET -5.422974 0.107910 2.002650
										CHANNELS 3 Zrotation Xrotation Yrotation
										JOINT rMid2
										{
											OFFSET -3.599533 -1.323776 2.090647
											CHANNELS 3 Zrotation Xrotation Yrotation
											JOINT rMid3
											{
												OFFSET -1.360191 -1.598495 1.068055
												CHANNELS 3 Zrotation Xrotation Yrotation
												End Site
												{
													OFFSET -4.087769 -0.460876 0.069540
												}
											}
										}
									}
								}
								JOINT rCarpal2
								{
									OFFSET -1.942749 0.556229 -0.337217
									CHANNELS 3 Zrotation Xrotation Yrotation
									JOINT rRing1
									{
										OFFSET -4.762787 -0.121170 2.349089
										CHANNELS 3 Zrotation Xrotation Yrotation
										JOINT rRing2
										{
											OFFSET -3.380348 -1.337097 1.356700
											CHANNELS 3 Zrotation Xrotation Yrotation
											JOINT rRing3
											{
												OFFSET -1.430290 -1.499649 0.914224
												CHANNELS 3 Zrotation Xrotation Yrotation
												End Site
												{
													OFFSET -1.783272 -2.215851 -0.391895
												}
											}
										}
									}
									JOINT rPinky1
									{
										OFFSET -5.232559 -1.313721 0.336493
										CHANNELS 3 Zrotation Xrotation Yrotation
										JOINT rPinky2
										{
											OFFSET -2.217606 -1.389603 0.800693
											CHANNELS 3 Zrotation Xrotation Yrotation
											JOINT rPinky3
											{
												OFFSET -0.886887 -1.462280 0.774199
												CHANNELS 3 Zrotation Xrotation Yrotation
												End Site
												{
													OFFSET 14.139406 -2.625778 0.472826
												}
											}
										}
									}
								}
							}
						}
					}
				}
				JOINT lCollar
				{
					OFFSET 2.109295 21.452370 3.768136
					CHANNELS 3 Zrotation Xrotation Yrotation
					JOINT lShldr
					{
						OFFSET 11.491621 -2.568573 -4.940255
						CHANNELS 3 Zrotation Xrotation Yrotation
						JOINT lForeArm
						{
							OFFSET 28.789030 -0.213806 2.098380
							CHANNELS 3 Zrotation Xrotation Yrotation
							JOINT lHand
							{
								OFFSET 22.260895 -0.869583 10.391586
								CHANNELS 3 Zrotation Xrotation Yrotation
								JOINT lThumb1
								{
									OFFSET 0.628075 0.137405 2.362409
									CHANNELS 3 Zrotation Xrotation Yrotation
									JOINT lThumb2
									{
										OFFSET -0.085205 -0.600235 3.826079
										CHANNELS 3 Zrotation Xrotation Yrotation
										JOINT lThumb3
										{
											OFFSET 1.255478 -0.879211 2.439162
											CHANNELS 3 Zrotation Xrotation Yrotation
											End Site
											{
												OFFSET 2.963715 0.538574 4.059553
											}
										}
									}
								}
								JOINT lCarpal1
								{
									OFFSET 0.855530 1.026047 1.621985
									CHANNELS 3 Zrotation Xrotation Yrotation
									JOINT lIndex1
									{
										OFFSET 3.951324 0.390884 3.873290
										CHANNELS 3 Zrotation Xrotation Yrotation
										JOINT lIndex2
										{
											OFFSET 3.071884 -1.259598 2.506104
											CHANNELS 3 Zrotation Xrotation Yrotation
											JOINT lIndex3
											{
												OFFSET 1.394112 -1.446640 1.203302
												CHANNELS 3 Zrotation Xrotation Yrotation
												End Site
												{
													OFFSET 3.392448 -1.258026 0.533405
												}
											}
										}
									}
									JOINT lMid1
									{
										OFFSET 5.422974 0.107910 2.002650
										CHANNELS 3 Zrotation Xrotation Yrotation
										JOINT lMid2
										{
											OFFSET 3.599533 -1.323776 2.090647
											CHANNELS 3 Zrotation Xrotation Yrotation
											JOINT lMid3
											{
												OFFSET 1.360191 -1.598495 1.068055
												CHANNELS 3 Zrotation Xrotation Yrotation
												End Site
												{
													OFFSET 4.087769 -0.460876 0.069540
												}
											}
										}
									}
								}
								JOINT lCarpal2
								{
									OFFSET 1.942749 0.556229 -0.337217
									CHANNELS 3 Zrotation Xrotation Yrotation
									JOINT lRing1
									{
										OFFSET 4.762787 -0.121170 2.349089
										CHANNELS 3 Zrotation Xrotation Yrotation
										JOINT lRing2
										{
											OFFSET 3.380348 -1.337097 1.356700
											CHANNELS 3 Zrotation Xrotation Yrotation
											JOINT lRing3
											{
												OFFSET 1.430290 -1.499649 0.914224
												CHANNELS 3 Zrotation Xrotation Yrotation
												End Site
												{
													OFFSET 1.783272 -2.215851 -0.391895
												}
											}
										}
									}
									JOINT lPinky1
									{
										OFFSET 5.232559 -1.313721 0.336493
										CHANNELS 3 Zrotation Xrotation Yrotation
										JOINT lPinky2
										{
											OFFSET 2.217606 -1.389603 0.800693
											CHANNELS 3 Zrotation Xrotation Yrotation
											JOINT lPinky3
											{
												OFFSET 0.886887 -1.462280 0.774199
												CHANNELS 3 Zrotation Xrotation Yrotation
												End Site
												{
													OFFSET -10.295957 -17.050110 17.461308
												}
											}
										}
									}
								}
							}
						}
					}
				}
				JOINT rPectoral
				{
					OFFSET -6.358840 6.360771 6.369920
					CHANNELS 3 Zrotation Xrotation Yrotation
					End Site
					{
						OFFSET 10.295957 -17.050110 17.461308
					}
				}
				JOINT lPectoral
				{
					OFFSET 6.358840 6.360771 6.369920
					CHANNELS 3 Zrotation Xrotation Yrotation
					End Site
					{
						OFFSET 10.295957 -17.050110 17.461308
					}
				}
			}
		}
	}
}
MOTION
Frames:	5
Frame Time:	0.0333333
-4.368960 -0.860901 10.365200 -3.546279 -1.307552 179.918961 0.000000 0.000000 0.000000 -7.057644 -0.775461 5.756274 0.890625 15.262912 0.242031 0.071834 1.037039 10.493425 0.000000 0.000000 0.000000 0.000000 0.000000 0.000000 -8.574166 -10.111313 -21.183430 -0.732065 35.740444 -0.322624 -2.347353 -11.998753 -10.473568 0.000000 0.000000 0.000000 0.000000 0.000000 0.000000 0.000000 0.000000 0.000000 -2.925050 10.793599 6.925319 -0.430418 -6.024519 1.757640 -12.537797 -6.078689 -4.820169 14.756694 12.536797 -7.403588 0.000000 0.000000 0.000000 0.000000 0.000000 0.000000 0.000000 0.000000 0.000000 0.000000 0.000000 0.000000 0.000000 0.000000 0.000000 0.000000 0.000000 0.000000 0.000000 0.000000 0.000000 0.000000 0.000000 0.000000 0.000000 0.000000 0.000000 0.000000 0.000000 0.000000 0.000000 0.000000 0.000000 1.005026 -4.457774 26.158192 69.922157 -19.569679 -16.137772 -4.447546 3.340629 26.414095 0.000000 0.000000 0.000000 -3.683647 7.568618 -37.263580 -0.521451 -4.065397 4.748854 0.000000 0.000000 0.000000 0.000000 0.000000 0.000000 2.932509 3.077809 -1.696276 -16.520334 -9.538442 -4.612900 0.000000 0.000000 0.000000 -3.674220 -0.286563 -4.611559 -18.025385 -7.769807 -5.343670 0.000000 0.000000 0.000000 -0.038922 5.621970 0.792687 -2.143522 2.948137 -9.589356 -18.472721 -6.951544 -4.630789 0.000000 0.000000 0.000000 -15.680961 4.379838 -16.697607 -18.444633 -4.749706 -6.966295 0.000000 0.000000 0.000000 -1.005026 -4.457774 -26.158192 -71.512459 -15.640950 13.874352 4.230048 3.269365 -25.620363 0.000000 0.000000 0.000000 3.683647 7.568618 37.263580 0.521451 -4.065397 -4.748854 0.000000 0.000000 0.000000 0.000000 0.000000 0.000000 -2.932506 3.077815 1.696297 16.520334 -9.538442 4.612900 0.000000 0.000000 0.000000 3.674220 -0.286563 4.611559 18.025385 -7.769807 5.343670 0.000000 0.000000 0.000000 0.098968 8.936839 -1.266380 2.143522 2.948137 9.589356 18.472721 -6.951544 4.630789 0.000000 0.000000 0.000000 15.680961 4.379838 16.697607 18.444633 -4.749706 6.966295 0.000000 0.000000 0.000000 -0.838774 0.020650 2.461073 0.838774 0.020650 -2.461073 
-4.986690 -0.815102 11.037700 -3.846635 -1.291149 179.913162 0.000000 0.000000 0.000000 -7.357326 0.130394 5.191910 0.894641 14.319442 0.237419 0.498912 1.254210 9.999678 0.000000 0.000000 0.000000 0.000000 0.000000 0.000000 -8.415121 -8.785599 -18.504992 -0.732158 36.064568 -0.384162 -0.982555 -10.305970 -10.642138 0.000000 0.000000 0.000000 0.000000 0.000000 0.000000 0.000000 0.000000 0.000000 -3.423219 10.902498 7.014948 -0.005837 -5.959249 1.774970 -13.083698 -6.089747 -4.775309 15.603696 12.870499 -7.243918 0.000000 0.000000 0.000000 0.000000 0.000000 0.000000 0.000000 0.000000 0.000000 0.000000 0.000000 0.000000 0.000000 0.000000 0.000000 0.000000 0.000000 0.000000 0.000000 0.000000 0.000000 0.000000 0.000000 0.000000 0.000000 0.000000 0.000000 0.000000 0.000000 0.000000 0.000000 0.000000 0.000000 1.005026 -4.457774 26.158192 70.102219 -18.829039 -16.073706 -4.621013 3.393867 27.033508 0.000000 0.000000 0.000000 -3.683647 7.568618 -37.263580 -0.521451 -4.065397 4.748854 0.000000 0.000000 0.000000 0.000000 0.000000 0.000000 2.932509 3.077809 -1.696276 -16.520334 -9.538442 -4.612900 0.000000 0.000000 0.000000 -3.674220 -0.286563 -4.611559 -18.025385 -7.769807 -5.343670 0.000000 0.000000 0.000000 -0.044870 6.034369 0.851257 -2.143522 2.948137 -9.589356 -18.472721 -6.951544 -4.630789 0.000000 0.000000 0.000000 -15.680961 4.379838 -16.697607 -18.444633 -4.749706 -6.966295 0.000000 0.000000 0.000000 -1.005026 -4.457774 -26.158192 -71.551796 -15.246966 13.967911 4.177571 3.251374 -25.426044 0.000000 0.000000 0.000000 3.683647 7.568618 37.263580 0.521451 -4.065397 -4.748854 0.000000 0.000000 0.000000 0.000000 0.000000 0.000000 -2.932506 3.077815 1.696297 16.520334 -9.538442 4.612900 0.000000 0.000000 0.000000 3.674220 -0.286563 4.611559 18.025385 -7.769807 5.343670 0.000000 0.000000 0.000000 0.095970 8.801799 -1.246930 2.143522 2.948137 9.589356 18.472721 -6.951544 4.630789 0.000000 0.000000 0.000000 15.680961 4.379838 16.697607 18.444633 -4.749706 6.966295 0.000000 0.000000 0.000000 -0.838774 0.020650 2.461073 0.838774 0.020650 -2.461073 
-5.655160 -0.810707 12.158200 -3.740251 -1.679602 179.890198 0.000000 0.000000 0.000000 -8.496776 1.279094 4.730809 0.901734 12.026774 0.200868 0.328911 1.624290 8.004757 0.000000 0.000000 0.000000 0.000000 0.000000 0.000000 -9.627122 -8.306572 -17.195009 -0.723535 37.041992 -0.471183 -0.132069 -8.819534 -10.782523 0.000000 0.000000 0.000000 0.000000 0.000000 0.000000 0.000000 0.000000 0.000000 -3.454729 10.270097 6.789749 -0.397615 -5.644218 1.676120 -12.928498 -5.908408 -4.592348 15.329398 12.996297 -6.961349 0.000000 0.000000 0.000000 0.000000 0.000000 0.000000 0.000000 0.000000 0.000000 0.000000 0.000000 0.000000 0.000000 0.000000 0.000000 0.000000 0.000000 0.000000 0.000000 0.000000 0.000000 0.000000 0.000000 0.000000 0.000000 0.000000 0.000000 0.000000 0.000000 0.000000 0.000000 0.000000 0.000000 1.005026 -4.457774 26.158192 70.105377 -19.099792 -15.922843 -4.793686 3.443791 27.638905 0.000000 0.000000 0.000000 -3.683647 7.568618 -37.263580 -0.521451 -4.065397 4.748854 0.000000 0.000000 0.000000 0.000000 0.000000 0.000000 2.932509 3.077809 -1.696276 -16.520334 -9.538442 -4.612900 0.000000 0.000000 0.000000 -3.674220 -0.286563 -4.611559 -18.025385 -7.769807 -5.343670 0.000000 0.000000 0.000000 -0.060605 7.007379 0.989813 -2.143522 2.948137 -9.589356 -18.472721 -6.951544 -4.630789 0.000000 0.000000 0.000000 -15.680961 4.379838 -16.697607 -18.444633 -4.749706 -6.966295 0.000000 0.000000 0.000000 -1.005026 -4.457774 -26.158192 -71.727989 -13.925035 14.170711 4.130309 3.234942 -25.249704 0.000000 0.000000 0.000000 3.683647 7.568618 37.263580 0.521451 -4.065397 -4.748854 0.000000 0.000000 0.000000 0.000000 0.000000 0.000000 -2.932506 3.077815 1.696297 16.520334 -9.538442 4.612900 0.000000 0.000000 0.000000 3.674220 -0.286563 4.611559 18.025385 -7.769807 5.343670 0.000000 0.000000 0.000000 0.044446 6.005959 -0.847218 2.143522 2.948137 9.589356 18.472721 -6.951544 4.630789 0.000000 0.000000 0.000000 15.680961 4.379838 16.697607 18.444633 -4.749706 6.966295 0.000000 0.000000 0.000000 -0.838774 0.020650 2.461073 0.838774 0.020650 -2.461073 
-6.120710 -0.879105 13.260400 -3.664503 -2.221163 179.857758 0.000000 0.000000 0.000000 -9.462072 1.046444 4.157238 0.901810 12.143093 0.218388 0.408070 1.052630 6.452109 0.000000 0.000000 0.000000 0.000000 0.000000 0.000000 -10.499994 -7.967526 -15.276990 -0.715206 37.977627 -0.605003 1.027566 -6.157399 -11.033063 0.000000 0.000000 0.000000 0.000000 0.000000 0.000000 0.000000 0.000000 0.000000 -3.513230 9.994007 6.594069 -0.716767 -5.637519 1.598890 -12.129798 -5.687789 -4.569039 13.902499 12.866396 -7.061248 0.000000 0.000000 0.000000 0.000000 0.000000 0.000000 0.000000 0.000000 0.000000 0.000000 0.000000 0.000000 0.000000 0.000000 0.000000 0.000000 0.000000 0.000000 0.000000 0.000000 0.000000 0.000000 0.000000 0.000000 0.000000 0.000000 0.000000 0.000000 0.000000 0.000000 0.000000 0.000000 0.000000 1.005026 -4.457774 26.158192 70.202187 -18.921820 -15.769415 -4.927728 3.480510 28.101446 0.000000 0.000000 0.000000 -3.683647 7.568618 -37.263580 -0.521451 -4.065397 4.748854 0.000000 0.000000 0.000000 0.000000 0.000000 0.000000 2.932509 3.077809 -1.696276 -16.520334 -9.538442 -4.612900 0.000000 0.000000 0.000000 -3.674220 -0.286563 -4.611559 -18.025385 -7.769807 -5.343670 0.000000 0.000000 0.000000 -0.050671 6.410729 0.904786 -2.143522 2.948137 -9.589356 -18.472721 -6.951544 -4.630789 0.000000 0.000000 0.000000 -15.680961 4.379838 -16.697607 -18.444633 -4.749706 -6.966295 0.000000 0.000000 0.000000 -1.005026 -4.457774 -26.158192 -71.735413 -13.519184 14.398039 4.030510 3.199367 -24.874435 0.000000 0.000000 0.000000 3.683647 7.568618 37.263580 0.521451 -4.065397 -4.748854 0.000000 0.000000 0.000000 0.000000 0.000000 0.000000 -2.932506 3.077815 1.696297 16.520334 -9.538442 4.612900 0.000000 0.000000 0.000000 3.674220 -0.286563 4.611559 18.025385 -7.769807 5.343670 0.000000 0.000000 0.000000 0.047872 6.232009 -0.879356 2.143522 2.948137 9.589356 18.472721 -6.951544 4.630789 0.000000 0.000000 0.000000 15.680961 4.379838 16.697607 18.444633 -4.749706 6.966295 0.000000 0.000000 0.000000 -0.838774 0.020650 2.461073 0.838774 0.020650 -2.461073 
-6.455180 -1.000107 13.922400 -3.592769 -2.273306 179.857285 0.000000 0.000000 0.000000 -9.648260 0.969760 3.544974 0.901881 12.241238 0.233358 0.456936 0.589227 4.906868 0.000000 0.000000 0.000000 0.000000 0.000000 0.000000 -9.971495 -7.566883 -12.717355 -0.704213 38.602917 -0.611688 -0.499777 -7.504595 -10.681246 0.000000 0.000000 0.000000 0.000000 0.000000 0.000000 0.000000 0.000000 0.000000 -3.530010 9.949968 6.155919 -0.399162 -5.754559 1.483400 -11.887198 -5.677188 -4.509059 13.075898 12.897497 -6.921349 0.000000 0.000000 0.000000 0.000000 0.000000 0.000000 0.000000 0.000000 0.000000 0.000000 0.000000 0.000000 0.000000 0.000000 0.000000 0.000000 0.000000 0.000000 0.000000 0.000000 0.000000 0.000000 0.000000 0.000000 0.000000 0.000000 0.000000 0.000000 0.000000 0.000000 0.000000 0.000000 0.000000 1.005026 -4.457774 26.158192 70.142441 -19.426128 -15.662583 -4.978912 3.494050 28.276575 0.000000 0.000000 0.000000 -3.683647 7.568618 -37.263580 -0.521451 -4.065397 4.748854 0.000000 0.000000 0.000000 0.000000 0.000000 0.000000 2.932509 3.077809 -1.696276 -16.520334 -9.538442 -4.612900 0.000000 0.000000 0.000000 -3.674220 -0.286563 -4.611559 -18.025385 -7.769807 -5.343670 0.000000 0.000000 0.000000 -0.046664 6.153289 0.868162 -2.143522 2.948137 -9.589356 -18.472721 -6.951544 -4.630789 0.000000 0.000000 0.000000 -15.680961 4.379838 -16.697607 -18.444633 -4.749706 -6.966295 0.000000 0.000000 0.000000 -1.005026 -4.457774 -26.158192 -71.537041 -14.527993 14.426256 3.904871 3.152956 -24.395292 0.000000 0.000000 0.000000 3.683647 7.568618 37.263580 0.521451 -4.065397 -4.748854 0.000000 0.000000 0.000000 0.000000 0.000000 0.000000 -2.932506 3.077815 1.696297 16.520334 -9.538442 4.612900 0.000000 0.000000 0.000000 3.674220 -0.286563 4.611559 18.025385 -7.769807 5.343670 0.000000 0.000000 0.000000 0.070925 7.576499 -1.071120 2.143522 2.948137 9.589356 18.472721 -6.951544 4.630789 0.000000 0.000000 0.000000 15.680961 4.379838 16.697607 18.444633 -4.749706 6.966295 0.000000 0.000000 0.000000 -0.838774 0.020650 2.461073 0.838774 0.020650 -2.461073 
